<svg id="Light_Button_4._Toggle_A._Left_a._Resting" data-name="Light 🌕/ Button/4. Toggle/A. Left/a. Resting" xmlns="http://www.w3.org/2000/svg" width="48" height="48" viewBox="0 0 48 48">
  <g id="_Color" data-name="↳ 🎨 Color" fill="none" stroke="rgba(0,0,0,0.12)" stroke-miterlimit="10" stroke-width="1">
    <path d="M4,0H48a0,0,0,0,1,0,0V48a0,0,0,0,1,0,0H4a4,4,0,0,1-4-4V4A4,4,0,0,1,4,0Z" stroke="none"/>
    <path d="M4,.5H47a.5.5,0,0,1,.5.5V47a.5.5,0,0,1-.5.5H4A3.5,3.5,0,0,1,.5,44V4A3.5,3.5,0,0,1,4,.5Z" fill="none"/>
  </g>
  <g id="_States" data-name="↳ 💡States">
    <rect id="States_Light_Surface_containers_Primary_Content" data-name="States/Light 🌕/Surface containers/Primary Content" fill="rgba(98,0,238,0)"/>
  </g>
  <g id="icon_action_favorite_24px" data-name="icon/action/favorite_24px" transform="translate(12 12)">
    <rect id="Boundary" width="24" height="24" fill="none"/>
    <path id="_Color-2" data-name=" ↳Color" d="M10,18,8.55,16.705C3.4,12.124,0,9.1,0,5.4A5.4,5.4,0,0,1,5.5,0,6.037,6.037,0,0,1,10,2.05,6.037,6.037,0,0,1,14.5,0,5.4,5.4,0,0,1,20,5.4c0,3.708-3.4,6.729-8.55,11.32Z" transform="translate(2 3)" fill="rgba(0,0,0,0.6)"/>
  </g>
</svg>
